<svg width="21" height="20" viewBox="0 0 21 20" fill="none" xmlns="http://www.w3.org/2000/svg">
<path fill-rule="evenodd" clip-rule="evenodd" d="M0.799683 0.839218H4.30233H5.12213L5.28291 1.61094L5.74024 3.80617H19.3431H20.5235L20.3295 4.92399L19.2993 10.8579L19.16 11.66H18.3129H7.37647L7.80062 13.696H18.3129V15.616H6.98081H6.16101L6.00023 14.8443L3.93985 4.95443L4.92044 4.76617L3.93985 4.95443L3.48252 2.75922H0.799683V0.839218ZM6.14024 5.72617L6.97647 9.74003H17.4658L18.1626 5.72617H6.14024ZM9.6758 18.0053C9.6758 18.8889 8.9316 19.6034 8.01119 19.6034C7.09075 19.6034 6.34656 18.8889 6.34656 18.0053C6.34656 17.1218 7.09075 16.426 8.01119 16.426C8.9316 16.426 9.6758 17.1218 9.6758 18.0053ZM16.2534 19.6034C17.1738 19.6034 17.918 18.8889 17.918 18.0053C17.918 17.1218 17.1738 16.426 16.2534 16.426C15.3329 16.426 14.5887 17.1218 14.5887 18.0053C14.5887 18.8889 15.3329 19.6034 16.2534 19.6034Z" fill="white"/>
</svg>
